<mxfile host="Electron" modified="2024-04-11T22:52:24.652Z" agent="Mozilla/5.0 (Windows NT 10.0; Win64; x64) AppleWebKit/537.36 (KHTML, like Gecko) draw.io/24.1.0 Chrome/120.0.6099.109 Electron/28.1.0 Safari/537.36" etag="A6N6-jfSzYzvLCy-HJYo" version="24.1.0" type="device">
  <diagram name="Page-1" id="rn_QFx29AITUa-4DMDLz">
    <mxGraphModel dx="2412" dy="957" grid="1" gridSize="10" guides="1" tooltips="1" connect="1" arrows="1" fold="1" page="1" pageScale="1" pageWidth="850" pageHeight="1100" math="0" shadow="0">
      <root>
        <mxCell id="0" />
        <mxCell id="1" parent="0" />
        <mxCell id="SjPfPHBdl20x7tSrDX4h-386" value="" style="shape=flexArrow;endArrow=classic;startArrow=classic;html=1;rounded=0;width=30.3448275862069;startSize=25.602298850574716;endWidth=10.725326991676575;endSize=27.533333333333335;startWidth=10.725326991676575;" parent="1" edge="1">
          <mxGeometry width="100" height="100" relative="1" as="geometry">
            <mxPoint x="21" y="1101.800048828125" as="sourcePoint" />
            <mxPoint x="1233.60009765625" y="21.039632209995034" as="targetPoint" />
            <Array as="points">
              <mxPoint x="22" y="22" />
            </Array>
          </mxGeometry>
        </mxCell>
        <mxCell id="SjPfPHBdl20x7tSrDX4h-389" value="(X,&lt;br&gt;&amp;nbsp;Y)" style="text;strokeColor=none;fillColor=none;html=1;fontSize=24;fontStyle=1;verticalAlign=middle;align=left;" parent="1" vertex="1">
          <mxGeometry x="-25" y="7" width="23" height="47" as="geometry" />
        </mxCell>
        <mxCell id="SjPfPHBdl20x7tSrDX4h-390" value="Y =&amp;nbsp; max Y" style="text;strokeColor=none;fillColor=none;html=1;fontSize=24;fontStyle=1;verticalAlign=middle;align=center;" parent="1" vertex="1">
          <mxGeometry x="-40" y="1090" width="100" height="40" as="geometry" />
        </mxCell>
        <mxCell id="SjPfPHBdl20x7tSrDX4h-398" value="" style="group;movable=1;resizable=1;rotatable=1;deletable=1;editable=1;locked=0;connectable=1;" parent="1" vertex="1" connectable="0">
          <mxGeometry x="12" y="9" width="142" height="26" as="geometry" />
        </mxCell>
        <mxCell id="SjPfPHBdl20x7tSrDX4h-392" value="" style="shape=flexArrow;endArrow=classic;html=1;rounded=0;width=3.8709677419354835;endSize=6.161290322580645;endWidth=6.956295525494277;" parent="SjPfPHBdl20x7tSrDX4h-398" edge="1">
          <mxGeometry width="50" height="50" relative="1" as="geometry">
            <mxPoint y="21" as="sourcePoint" />
            <mxPoint x="80" y="21" as="targetPoint" />
          </mxGeometry>
        </mxCell>
        <mxCell id="SjPfPHBdl20x7tSrDX4h-395" value="+ + + + +&amp;nbsp;" style="text;html=1;align=center;verticalAlign=middle;whiteSpace=wrap;rounded=0;" parent="SjPfPHBdl20x7tSrDX4h-398" vertex="1">
          <mxGeometry x="79" y="16" width="60" height="10" as="geometry" />
        </mxCell>
        <mxCell id="SjPfPHBdl20x7tSrDX4h-396" value="" style="shape=flexArrow;endArrow=classic;html=1;rounded=0;width=3.8709677419354835;endSize=6.161290322580645;endWidth=6.956295525494277;" parent="SjPfPHBdl20x7tSrDX4h-398" edge="1">
          <mxGeometry width="50" height="50" relative="1" as="geometry">
            <mxPoint x="142" y="6" as="sourcePoint" />
            <mxPoint x="62" y="6" as="targetPoint" />
          </mxGeometry>
        </mxCell>
        <mxCell id="SjPfPHBdl20x7tSrDX4h-397" value="- - - - -&amp;nbsp;" style="text;html=1;align=center;verticalAlign=middle;whiteSpace=wrap;rounded=0;" parent="SjPfPHBdl20x7tSrDX4h-398" vertex="1">
          <mxGeometry x="20" width="40" height="10" as="geometry" />
        </mxCell>
        <mxCell id="SjPfPHBdl20x7tSrDX4h-399" value="" style="group;movable=1;resizable=1;rotatable=1;deletable=1;editable=1;locked=0;connectable=1;rotation=90;" parent="1" vertex="1" connectable="0">
          <mxGeometry x="-49" y="113" width="142" height="26" as="geometry" />
        </mxCell>
        <mxCell id="SjPfPHBdl20x7tSrDX4h-400" value="" style="shape=flexArrow;endArrow=classic;html=1;rounded=0;width=3.8709677419354835;endSize=6.161290322580645;endWidth=6.956295525494277;" parent="SjPfPHBdl20x7tSrDX4h-399" edge="1">
          <mxGeometry width="50" height="50" relative="1" as="geometry">
            <mxPoint x="63" y="-58" as="sourcePoint" />
            <mxPoint x="63" y="22" as="targetPoint" />
          </mxGeometry>
        </mxCell>
        <mxCell id="SjPfPHBdl20x7tSrDX4h-401" value="+ + + + +&amp;nbsp;" style="text;html=1;align=center;verticalAlign=middle;whiteSpace=wrap;rounded=0;rotation=90;" parent="SjPfPHBdl20x7tSrDX4h-399" vertex="1">
          <mxGeometry x="33" y="46" width="60" height="10" as="geometry" />
        </mxCell>
        <mxCell id="SjPfPHBdl20x7tSrDX4h-402" value="" style="shape=flexArrow;endArrow=classic;html=1;rounded=0;width=3.8709677419354835;endSize=6.161290322580645;endWidth=6.956295525494277;" parent="SjPfPHBdl20x7tSrDX4h-399" edge="1">
          <mxGeometry width="50" height="50" relative="1" as="geometry">
            <mxPoint x="78" y="84" as="sourcePoint" />
            <mxPoint x="78" y="4" as="targetPoint" />
          </mxGeometry>
        </mxCell>
        <mxCell id="SjPfPHBdl20x7tSrDX4h-403" value="- - - - -&amp;nbsp;" style="text;html=1;align=center;verticalAlign=middle;whiteSpace=wrap;rounded=0;rotation=90;" parent="SjPfPHBdl20x7tSrDX4h-399" vertex="1">
          <mxGeometry x="59" y="-23" width="40" height="10" as="geometry" />
        </mxCell>
        <mxCell id="SjPfPHBdl20x7tSrDX4h-404" value="&lt;font style=&quot;font-size: 21px;&quot;&gt;&amp;nbsp; &amp;nbsp;&amp;nbsp;&lt;/font&gt;&lt;b&gt;&lt;i&gt;&lt;font style=&quot;font-size: 24px;&quot;&gt;0&lt;/font&gt;&lt;/i&gt;&lt;/b&gt;" style="text;html=1;align=center;verticalAlign=middle;whiteSpace=wrap;rounded=0;" parent="1" vertex="1">
          <mxGeometry x="-15" y="9" width="49" height="15.5" as="geometry" />
        </mxCell>
        <mxCell id="SjPfPHBdl20x7tSrDX4h-406" value="" style="group;movable=1;resizable=1;rotatable=1;deletable=1;editable=1;locked=0;connectable=1;rotation=90;" parent="1" vertex="1" connectable="0">
          <mxGeometry x="-49" y="270" width="142" height="26" as="geometry" />
        </mxCell>
        <mxCell id="SjPfPHBdl20x7tSrDX4h-407" value="" style="shape=flexArrow;endArrow=classic;html=1;rounded=0;width=3.8709677419354835;endSize=6.161290322580645;endWidth=6.956295525494277;" parent="SjPfPHBdl20x7tSrDX4h-406" edge="1">
          <mxGeometry width="50" height="50" relative="1" as="geometry">
            <mxPoint x="63" y="-58" as="sourcePoint" />
            <mxPoint x="63" y="22" as="targetPoint" />
          </mxGeometry>
        </mxCell>
        <mxCell id="SjPfPHBdl20x7tSrDX4h-408" value="+ + + + +&amp;nbsp;" style="text;html=1;align=center;verticalAlign=middle;whiteSpace=wrap;rounded=0;rotation=90;" parent="SjPfPHBdl20x7tSrDX4h-406" vertex="1">
          <mxGeometry x="33" y="46" width="60" height="10" as="geometry" />
        </mxCell>
        <mxCell id="SjPfPHBdl20x7tSrDX4h-409" value="" style="shape=flexArrow;endArrow=classic;html=1;rounded=0;width=3.8709677419354835;endSize=6.161290322580645;endWidth=6.956295525494277;" parent="SjPfPHBdl20x7tSrDX4h-406" edge="1">
          <mxGeometry width="50" height="50" relative="1" as="geometry">
            <mxPoint x="78" y="84" as="sourcePoint" />
            <mxPoint x="78" y="4" as="targetPoint" />
          </mxGeometry>
        </mxCell>
        <mxCell id="SjPfPHBdl20x7tSrDX4h-410" value="- - - - -&amp;nbsp;" style="text;html=1;align=center;verticalAlign=middle;whiteSpace=wrap;rounded=0;rotation=90;" parent="SjPfPHBdl20x7tSrDX4h-406" vertex="1">
          <mxGeometry x="59" y="-23" width="40" height="10" as="geometry" />
        </mxCell>
        <mxCell id="SjPfPHBdl20x7tSrDX4h-411" value="" style="group;movable=1;resizable=1;rotatable=1;deletable=1;editable=1;locked=0;connectable=1;rotation=90;" parent="1" vertex="1" connectable="0">
          <mxGeometry x="-49" y="427" width="142" height="26" as="geometry" />
        </mxCell>
        <mxCell id="SjPfPHBdl20x7tSrDX4h-412" value="" style="shape=flexArrow;endArrow=classic;html=1;rounded=0;width=3.8709677419354835;endSize=6.161290322580645;endWidth=6.956295525494277;" parent="SjPfPHBdl20x7tSrDX4h-411" edge="1">
          <mxGeometry width="50" height="50" relative="1" as="geometry">
            <mxPoint x="63" y="-58" as="sourcePoint" />
            <mxPoint x="63" y="22" as="targetPoint" />
          </mxGeometry>
        </mxCell>
        <mxCell id="SjPfPHBdl20x7tSrDX4h-413" value="+ + + + +&amp;nbsp;" style="text;html=1;align=center;verticalAlign=middle;whiteSpace=wrap;rounded=0;rotation=90;" parent="SjPfPHBdl20x7tSrDX4h-411" vertex="1">
          <mxGeometry x="33" y="46" width="60" height="10" as="geometry" />
        </mxCell>
        <mxCell id="SjPfPHBdl20x7tSrDX4h-414" value="" style="shape=flexArrow;endArrow=classic;html=1;rounded=0;width=3.8709677419354835;endSize=6.161290322580645;endWidth=6.956295525494277;" parent="SjPfPHBdl20x7tSrDX4h-411" edge="1">
          <mxGeometry width="50" height="50" relative="1" as="geometry">
            <mxPoint x="78" y="84" as="sourcePoint" />
            <mxPoint x="78" y="4" as="targetPoint" />
          </mxGeometry>
        </mxCell>
        <mxCell id="SjPfPHBdl20x7tSrDX4h-415" value="- - - - -&amp;nbsp;" style="text;html=1;align=center;verticalAlign=middle;whiteSpace=wrap;rounded=0;rotation=90;" parent="SjPfPHBdl20x7tSrDX4h-411" vertex="1">
          <mxGeometry x="59" y="-23" width="40" height="10" as="geometry" />
        </mxCell>
        <mxCell id="SjPfPHBdl20x7tSrDX4h-416" value="" style="group;movable=1;resizable=1;rotatable=1;deletable=1;editable=1;locked=0;connectable=1;rotation=90;" parent="1" vertex="1" connectable="0">
          <mxGeometry x="-49" y="585" width="142" height="26" as="geometry" />
        </mxCell>
        <mxCell id="SjPfPHBdl20x7tSrDX4h-417" value="" style="shape=flexArrow;endArrow=classic;html=1;rounded=0;width=3.8709677419354835;endSize=6.161290322580645;endWidth=6.956295525494277;" parent="SjPfPHBdl20x7tSrDX4h-416" edge="1">
          <mxGeometry width="50" height="50" relative="1" as="geometry">
            <mxPoint x="63" y="-58" as="sourcePoint" />
            <mxPoint x="63" y="22" as="targetPoint" />
          </mxGeometry>
        </mxCell>
        <mxCell id="SjPfPHBdl20x7tSrDX4h-418" value="+ + + + +&amp;nbsp;" style="text;html=1;align=center;verticalAlign=middle;whiteSpace=wrap;rounded=0;rotation=90;" parent="SjPfPHBdl20x7tSrDX4h-416" vertex="1">
          <mxGeometry x="33" y="46" width="60" height="10" as="geometry" />
        </mxCell>
        <mxCell id="SjPfPHBdl20x7tSrDX4h-419" value="" style="shape=flexArrow;endArrow=classic;html=1;rounded=0;width=3.8709677419354835;endSize=6.161290322580645;endWidth=6.956295525494277;" parent="SjPfPHBdl20x7tSrDX4h-416" edge="1">
          <mxGeometry width="50" height="50" relative="1" as="geometry">
            <mxPoint x="78" y="84" as="sourcePoint" />
            <mxPoint x="78" y="4" as="targetPoint" />
          </mxGeometry>
        </mxCell>
        <mxCell id="SjPfPHBdl20x7tSrDX4h-420" value="- - - - -&amp;nbsp;" style="text;html=1;align=center;verticalAlign=middle;whiteSpace=wrap;rounded=0;rotation=90;" parent="SjPfPHBdl20x7tSrDX4h-416" vertex="1">
          <mxGeometry x="59" y="-23" width="40" height="10" as="geometry" />
        </mxCell>
        <mxCell id="SjPfPHBdl20x7tSrDX4h-421" value="" style="group;movable=1;resizable=1;rotatable=1;deletable=1;editable=1;locked=0;connectable=1;rotation=90;" parent="1" vertex="1" connectable="0">
          <mxGeometry x="-49" y="744" width="142" height="26" as="geometry" />
        </mxCell>
        <mxCell id="SjPfPHBdl20x7tSrDX4h-422" value="" style="shape=flexArrow;endArrow=classic;html=1;rounded=0;width=3.8709677419354835;endSize=6.161290322580645;endWidth=6.956295525494277;" parent="SjPfPHBdl20x7tSrDX4h-421" edge="1">
          <mxGeometry width="50" height="50" relative="1" as="geometry">
            <mxPoint x="63" y="-58" as="sourcePoint" />
            <mxPoint x="63" y="22" as="targetPoint" />
          </mxGeometry>
        </mxCell>
        <mxCell id="SjPfPHBdl20x7tSrDX4h-423" value="+ + + + +&amp;nbsp;" style="text;html=1;align=center;verticalAlign=middle;whiteSpace=wrap;rounded=0;rotation=90;" parent="SjPfPHBdl20x7tSrDX4h-421" vertex="1">
          <mxGeometry x="33" y="46" width="60" height="10" as="geometry" />
        </mxCell>
        <mxCell id="SjPfPHBdl20x7tSrDX4h-424" value="" style="shape=flexArrow;endArrow=classic;html=1;rounded=0;width=3.8709677419354835;endSize=6.161290322580645;endWidth=6.956295525494277;" parent="SjPfPHBdl20x7tSrDX4h-421" edge="1">
          <mxGeometry width="50" height="50" relative="1" as="geometry">
            <mxPoint x="78" y="84" as="sourcePoint" />
            <mxPoint x="78" y="4" as="targetPoint" />
          </mxGeometry>
        </mxCell>
        <mxCell id="SjPfPHBdl20x7tSrDX4h-425" value="- - - - -&amp;nbsp;" style="text;html=1;align=center;verticalAlign=middle;whiteSpace=wrap;rounded=0;rotation=90;" parent="SjPfPHBdl20x7tSrDX4h-421" vertex="1">
          <mxGeometry x="59" y="-23" width="40" height="10" as="geometry" />
        </mxCell>
        <mxCell id="SjPfPHBdl20x7tSrDX4h-426" value="" style="group;movable=1;resizable=1;rotatable=1;deletable=1;editable=1;locked=0;connectable=1;rotation=90;" parent="1" vertex="1" connectable="0">
          <mxGeometry x="-49" y="900" width="142" height="26" as="geometry" />
        </mxCell>
        <mxCell id="SjPfPHBdl20x7tSrDX4h-427" value="" style="shape=flexArrow;endArrow=classic;html=1;rounded=0;width=3.8709677419354835;endSize=6.161290322580645;endWidth=6.956295525494277;" parent="SjPfPHBdl20x7tSrDX4h-426" edge="1">
          <mxGeometry width="50" height="50" relative="1" as="geometry">
            <mxPoint x="63" y="-58" as="sourcePoint" />
            <mxPoint x="63" y="22" as="targetPoint" />
          </mxGeometry>
        </mxCell>
        <mxCell id="SjPfPHBdl20x7tSrDX4h-428" value="+ + + + +&amp;nbsp;" style="text;html=1;align=center;verticalAlign=middle;whiteSpace=wrap;rounded=0;rotation=90;" parent="SjPfPHBdl20x7tSrDX4h-426" vertex="1">
          <mxGeometry x="33" y="46" width="60" height="10" as="geometry" />
        </mxCell>
        <mxCell id="SjPfPHBdl20x7tSrDX4h-429" value="" style="shape=flexArrow;endArrow=classic;html=1;rounded=0;width=3.8709677419354835;endSize=6.161290322580645;endWidth=6.956295525494277;" parent="SjPfPHBdl20x7tSrDX4h-426" edge="1">
          <mxGeometry width="50" height="50" relative="1" as="geometry">
            <mxPoint x="78" y="84" as="sourcePoint" />
            <mxPoint x="78" y="4" as="targetPoint" />
          </mxGeometry>
        </mxCell>
        <mxCell id="SjPfPHBdl20x7tSrDX4h-430" value="- - - - -&amp;nbsp;" style="text;html=1;align=center;verticalAlign=middle;whiteSpace=wrap;rounded=0;rotation=90;" parent="SjPfPHBdl20x7tSrDX4h-426" vertex="1">
          <mxGeometry x="59" y="-23" width="40" height="10" as="geometry" />
        </mxCell>
        <mxCell id="SjPfPHBdl20x7tSrDX4h-431" value="" style="group;movable=1;resizable=1;rotatable=1;deletable=1;editable=1;locked=0;connectable=1;" parent="1" vertex="1" connectable="0">
          <mxGeometry x="162" y="9" width="142" height="26" as="geometry" />
        </mxCell>
        <mxCell id="SjPfPHBdl20x7tSrDX4h-432" value="" style="shape=flexArrow;endArrow=classic;html=1;rounded=0;width=3.8709677419354835;endSize=6.161290322580645;endWidth=6.956295525494277;" parent="SjPfPHBdl20x7tSrDX4h-431" edge="1">
          <mxGeometry width="50" height="50" relative="1" as="geometry">
            <mxPoint y="21" as="sourcePoint" />
            <mxPoint x="80" y="21" as="targetPoint" />
          </mxGeometry>
        </mxCell>
        <mxCell id="SjPfPHBdl20x7tSrDX4h-433" value="+ + + + +&amp;nbsp;" style="text;html=1;align=center;verticalAlign=middle;whiteSpace=wrap;rounded=0;" parent="SjPfPHBdl20x7tSrDX4h-431" vertex="1">
          <mxGeometry x="79" y="16" width="60" height="10" as="geometry" />
        </mxCell>
        <mxCell id="SjPfPHBdl20x7tSrDX4h-434" value="" style="shape=flexArrow;endArrow=classic;html=1;rounded=0;width=3.8709677419354835;endSize=6.161290322580645;endWidth=6.956295525494277;" parent="SjPfPHBdl20x7tSrDX4h-431" edge="1">
          <mxGeometry width="50" height="50" relative="1" as="geometry">
            <mxPoint x="142" y="6" as="sourcePoint" />
            <mxPoint x="62" y="6" as="targetPoint" />
          </mxGeometry>
        </mxCell>
        <mxCell id="SjPfPHBdl20x7tSrDX4h-435" value="- - - - -&amp;nbsp;" style="text;html=1;align=center;verticalAlign=middle;whiteSpace=wrap;rounded=0;" parent="SjPfPHBdl20x7tSrDX4h-431" vertex="1">
          <mxGeometry x="20" width="40" height="10" as="geometry" />
        </mxCell>
        <mxCell id="SjPfPHBdl20x7tSrDX4h-436" value="" style="group;movable=1;resizable=1;rotatable=1;deletable=1;editable=1;locked=0;connectable=1;" parent="1" vertex="1" connectable="0">
          <mxGeometry x="311" y="9" width="142" height="26" as="geometry" />
        </mxCell>
        <mxCell id="SjPfPHBdl20x7tSrDX4h-437" value="" style="shape=flexArrow;endArrow=classic;html=1;rounded=0;width=3.8709677419354835;endSize=6.161290322580645;endWidth=6.956295525494277;" parent="SjPfPHBdl20x7tSrDX4h-436" edge="1">
          <mxGeometry width="50" height="50" relative="1" as="geometry">
            <mxPoint y="21" as="sourcePoint" />
            <mxPoint x="80" y="21" as="targetPoint" />
          </mxGeometry>
        </mxCell>
        <mxCell id="SjPfPHBdl20x7tSrDX4h-438" value="+ + + + +&amp;nbsp;" style="text;html=1;align=center;verticalAlign=middle;whiteSpace=wrap;rounded=0;" parent="SjPfPHBdl20x7tSrDX4h-436" vertex="1">
          <mxGeometry x="79" y="16" width="60" height="10" as="geometry" />
        </mxCell>
        <mxCell id="SjPfPHBdl20x7tSrDX4h-439" value="" style="shape=flexArrow;endArrow=classic;html=1;rounded=0;width=3.8709677419354835;endSize=6.161290322580645;endWidth=6.956295525494277;" parent="SjPfPHBdl20x7tSrDX4h-436" edge="1">
          <mxGeometry width="50" height="50" relative="1" as="geometry">
            <mxPoint x="142" y="6" as="sourcePoint" />
            <mxPoint x="62" y="6" as="targetPoint" />
          </mxGeometry>
        </mxCell>
        <mxCell id="SjPfPHBdl20x7tSrDX4h-440" value="- - - - -&amp;nbsp;" style="text;html=1;align=center;verticalAlign=middle;whiteSpace=wrap;rounded=0;" parent="SjPfPHBdl20x7tSrDX4h-436" vertex="1">
          <mxGeometry x="20" width="40" height="10" as="geometry" />
        </mxCell>
        <mxCell id="SjPfPHBdl20x7tSrDX4h-441" value="" style="group;movable=1;resizable=1;rotatable=1;deletable=1;editable=1;locked=0;connectable=1;" parent="1" vertex="1" connectable="0">
          <mxGeometry x="461" y="9" width="142" height="26" as="geometry" />
        </mxCell>
        <mxCell id="SjPfPHBdl20x7tSrDX4h-442" value="" style="shape=flexArrow;endArrow=classic;html=1;rounded=0;width=3.8709677419354835;endSize=6.161290322580645;endWidth=6.956295525494277;" parent="SjPfPHBdl20x7tSrDX4h-441" edge="1">
          <mxGeometry width="50" height="50" relative="1" as="geometry">
            <mxPoint y="21" as="sourcePoint" />
            <mxPoint x="80" y="21" as="targetPoint" />
          </mxGeometry>
        </mxCell>
        <mxCell id="SjPfPHBdl20x7tSrDX4h-443" value="+ + + + +&amp;nbsp;" style="text;html=1;align=center;verticalAlign=middle;whiteSpace=wrap;rounded=0;" parent="SjPfPHBdl20x7tSrDX4h-441" vertex="1">
          <mxGeometry x="79" y="16" width="60" height="10" as="geometry" />
        </mxCell>
        <mxCell id="SjPfPHBdl20x7tSrDX4h-444" value="" style="shape=flexArrow;endArrow=classic;html=1;rounded=0;width=3.8709677419354835;endSize=6.161290322580645;endWidth=6.956295525494277;" parent="SjPfPHBdl20x7tSrDX4h-441" edge="1">
          <mxGeometry width="50" height="50" relative="1" as="geometry">
            <mxPoint x="142" y="6" as="sourcePoint" />
            <mxPoint x="62" y="6" as="targetPoint" />
          </mxGeometry>
        </mxCell>
        <mxCell id="SjPfPHBdl20x7tSrDX4h-445" value="- - - - -&amp;nbsp;" style="text;html=1;align=center;verticalAlign=middle;whiteSpace=wrap;rounded=0;" parent="SjPfPHBdl20x7tSrDX4h-441" vertex="1">
          <mxGeometry x="20" width="40" height="10" as="geometry" />
        </mxCell>
        <mxCell id="SjPfPHBdl20x7tSrDX4h-446" value="" style="group;movable=1;resizable=1;rotatable=1;deletable=1;editable=1;locked=0;connectable=1;" parent="1" vertex="1" connectable="0">
          <mxGeometry x="611" y="9" width="142" height="26" as="geometry" />
        </mxCell>
        <mxCell id="SjPfPHBdl20x7tSrDX4h-447" value="" style="shape=flexArrow;endArrow=classic;html=1;rounded=0;width=3.8709677419354835;endSize=6.161290322580645;endWidth=6.956295525494277;" parent="SjPfPHBdl20x7tSrDX4h-446" edge="1">
          <mxGeometry width="50" height="50" relative="1" as="geometry">
            <mxPoint y="21" as="sourcePoint" />
            <mxPoint x="80" y="21" as="targetPoint" />
          </mxGeometry>
        </mxCell>
        <mxCell id="SjPfPHBdl20x7tSrDX4h-448" value="+ + + + +&amp;nbsp;" style="text;html=1;align=center;verticalAlign=middle;whiteSpace=wrap;rounded=0;" parent="SjPfPHBdl20x7tSrDX4h-446" vertex="1">
          <mxGeometry x="79" y="16" width="60" height="10" as="geometry" />
        </mxCell>
        <mxCell id="SjPfPHBdl20x7tSrDX4h-449" value="" style="shape=flexArrow;endArrow=classic;html=1;rounded=0;width=3.8709677419354835;endSize=6.161290322580645;endWidth=6.956295525494277;" parent="SjPfPHBdl20x7tSrDX4h-446" edge="1">
          <mxGeometry width="50" height="50" relative="1" as="geometry">
            <mxPoint x="142" y="6" as="sourcePoint" />
            <mxPoint x="62" y="6" as="targetPoint" />
          </mxGeometry>
        </mxCell>
        <mxCell id="SjPfPHBdl20x7tSrDX4h-450" value="- - - - -&amp;nbsp;" style="text;html=1;align=center;verticalAlign=middle;whiteSpace=wrap;rounded=0;" parent="SjPfPHBdl20x7tSrDX4h-446" vertex="1">
          <mxGeometry x="20" width="40" height="10" as="geometry" />
        </mxCell>
        <mxCell id="SjPfPHBdl20x7tSrDX4h-451" value="" style="group;movable=1;resizable=1;rotatable=1;deletable=1;editable=1;locked=0;connectable=1;" parent="1" vertex="1" connectable="0">
          <mxGeometry x="760" y="9" width="142" height="26" as="geometry" />
        </mxCell>
        <mxCell id="SjPfPHBdl20x7tSrDX4h-452" value="" style="shape=flexArrow;endArrow=classic;html=1;rounded=0;width=3.8709677419354835;endSize=6.161290322580645;endWidth=6.956295525494277;" parent="SjPfPHBdl20x7tSrDX4h-451" edge="1">
          <mxGeometry width="50" height="50" relative="1" as="geometry">
            <mxPoint y="21" as="sourcePoint" />
            <mxPoint x="80" y="21" as="targetPoint" />
          </mxGeometry>
        </mxCell>
        <mxCell id="SjPfPHBdl20x7tSrDX4h-453" value="+ + + + +&amp;nbsp;" style="text;html=1;align=center;verticalAlign=middle;whiteSpace=wrap;rounded=0;" parent="SjPfPHBdl20x7tSrDX4h-451" vertex="1">
          <mxGeometry x="79" y="16" width="60" height="10" as="geometry" />
        </mxCell>
        <mxCell id="SjPfPHBdl20x7tSrDX4h-454" value="" style="shape=flexArrow;endArrow=classic;html=1;rounded=0;width=3.8709677419354835;endSize=6.161290322580645;endWidth=6.956295525494277;" parent="SjPfPHBdl20x7tSrDX4h-451" edge="1">
          <mxGeometry width="50" height="50" relative="1" as="geometry">
            <mxPoint x="142" y="6" as="sourcePoint" />
            <mxPoint x="62" y="6" as="targetPoint" />
          </mxGeometry>
        </mxCell>
        <mxCell id="SjPfPHBdl20x7tSrDX4h-455" value="- - - - -&amp;nbsp;" style="text;html=1;align=center;verticalAlign=middle;whiteSpace=wrap;rounded=0;" parent="SjPfPHBdl20x7tSrDX4h-451" vertex="1">
          <mxGeometry x="20" width="40" height="10" as="geometry" />
        </mxCell>
        <mxCell id="SjPfPHBdl20x7tSrDX4h-456" value="" style="group;movable=1;resizable=1;rotatable=1;deletable=1;editable=1;locked=0;connectable=1;" parent="1" vertex="1" connectable="0">
          <mxGeometry x="910" y="9" width="142" height="26" as="geometry" />
        </mxCell>
        <mxCell id="SjPfPHBdl20x7tSrDX4h-457" value="" style="shape=flexArrow;endArrow=classic;html=1;rounded=0;width=3.8709677419354835;endSize=6.161290322580645;endWidth=6.956295525494277;" parent="SjPfPHBdl20x7tSrDX4h-456" edge="1">
          <mxGeometry width="50" height="50" relative="1" as="geometry">
            <mxPoint y="21" as="sourcePoint" />
            <mxPoint x="80" y="21" as="targetPoint" />
          </mxGeometry>
        </mxCell>
        <mxCell id="SjPfPHBdl20x7tSrDX4h-458" value="+ + + + +&amp;nbsp;" style="text;html=1;align=center;verticalAlign=middle;whiteSpace=wrap;rounded=0;" parent="SjPfPHBdl20x7tSrDX4h-456" vertex="1">
          <mxGeometry x="79" y="16" width="60" height="10" as="geometry" />
        </mxCell>
        <mxCell id="SjPfPHBdl20x7tSrDX4h-459" value="" style="shape=flexArrow;endArrow=classic;html=1;rounded=0;width=3.8709677419354835;endSize=6.161290322580645;endWidth=6.956295525494277;" parent="SjPfPHBdl20x7tSrDX4h-456" edge="1">
          <mxGeometry width="50" height="50" relative="1" as="geometry">
            <mxPoint x="142" y="6" as="sourcePoint" />
            <mxPoint x="62" y="6" as="targetPoint" />
          </mxGeometry>
        </mxCell>
        <mxCell id="SjPfPHBdl20x7tSrDX4h-460" value="- - - - -&amp;nbsp;" style="text;html=1;align=center;verticalAlign=middle;whiteSpace=wrap;rounded=0;" parent="SjPfPHBdl20x7tSrDX4h-456" vertex="1">
          <mxGeometry x="20" width="40" height="10" as="geometry" />
        </mxCell>
        <mxCell id="SjPfPHBdl20x7tSrDX4h-295" value="" style="group;imageAspect=0;" parent="1" vertex="1" connectable="0">
          <mxGeometry x="80" y="130" width="297" height="264" as="geometry" />
        </mxCell>
        <mxCell id="SjPfPHBdl20x7tSrDX4h-23" value="Y1" style="text;html=1;align=center;verticalAlign=middle;whiteSpace=wrap;rounded=0;" parent="SjPfPHBdl20x7tSrDX4h-295" vertex="1">
          <mxGeometry x="258" y="8" width="15" height="10" as="geometry" />
        </mxCell>
        <mxCell id="SjPfPHBdl20x7tSrDX4h-294" value="" style="group;imageAspect=0;" parent="SjPfPHBdl20x7tSrDX4h-295" vertex="1" connectable="0">
          <mxGeometry y="8" width="261" height="256" as="geometry" />
        </mxCell>
        <mxCell id="SjPfPHBdl20x7tSrDX4h-5" value="" style="whiteSpace=wrap;html=1;aspect=fixed;imageAspect=0;resizable=1;rounded=0;" parent="SjPfPHBdl20x7tSrDX4h-294" vertex="1">
          <mxGeometry x="15" y="10" width="246" height="246" as="geometry" />
        </mxCell>
        <mxCell id="SjPfPHBdl20x7tSrDX4h-8" value="X1" style="text;html=1;align=center;verticalAlign=middle;whiteSpace=wrap;rounded=0;" parent="SjPfPHBdl20x7tSrDX4h-294" vertex="1">
          <mxGeometry x="15" y="10" width="14" height="10" as="geometry" />
        </mxCell>
        <mxCell id="SjPfPHBdl20x7tSrDX4h-6" value="Y1" style="text;html=1;align=center;verticalAlign=middle;whiteSpace=wrap;rounded=0;" parent="SjPfPHBdl20x7tSrDX4h-294" vertex="1">
          <mxGeometry width="15" height="10" as="geometry" />
        </mxCell>
        <mxCell id="SjPfPHBdl20x7tSrDX4h-320" value="" style="shape=flexArrow;endArrow=classic;startArrow=classic;html=1;rounded=0;" parent="SjPfPHBdl20x7tSrDX4h-294" edge="1">
          <mxGeometry width="100" height="100" relative="1" as="geometry">
            <mxPoint x="29" y="120" as="sourcePoint" />
            <mxPoint x="129" y="20" as="targetPoint" />
            <Array as="points">
              <mxPoint x="128" y="120" />
            </Array>
          </mxGeometry>
        </mxCell>
        <mxCell id="SjPfPHBdl20x7tSrDX4h-290" value="" style="group" parent="SjPfPHBdl20x7tSrDX4h-295" vertex="1" connectable="0">
          <mxGeometry x="17" y="14" width="242" height="22" as="geometry" />
        </mxCell>
        <mxCell id="SjPfPHBdl20x7tSrDX4h-22" value="" style="html=1;shadow=0;dashed=0;align=center;verticalAlign=middle;shape=mxgraph.arrows2.twoWayArrow;dy=0.65;dx=22;rotation=0;" parent="SjPfPHBdl20x7tSrDX4h-290" vertex="1">
          <mxGeometry width="242" height="8" as="geometry" />
        </mxCell>
        <mxCell id="SjPfPHBdl20x7tSrDX4h-17" value="" style="group" parent="SjPfPHBdl20x7tSrDX4h-290" vertex="1" connectable="0">
          <mxGeometry y="5" width="242" height="17" as="geometry" />
        </mxCell>
        <mxCell id="SjPfPHBdl20x7tSrDX4h-9" value="W1 (Width)" style="text;html=1;align=center;verticalAlign=middle;whiteSpace=wrap;rounded=0;" parent="SjPfPHBdl20x7tSrDX4h-17" vertex="1">
          <mxGeometry x="72" y="1" width="98" height="10" as="geometry" />
        </mxCell>
        <mxCell id="SjPfPHBdl20x7tSrDX4h-293" value="" style="group" parent="SjPfPHBdl20x7tSrDX4h-295" vertex="1" connectable="0">
          <mxGeometry x="-8.5" y="20" width="31.5" height="242.5" as="geometry" />
        </mxCell>
        <mxCell id="SjPfPHBdl20x7tSrDX4h-18" value="" style="group;rotation=90;" parent="SjPfPHBdl20x7tSrDX4h-293" vertex="1" connectable="0">
          <mxGeometry x="-112.5" y="113" width="242" height="17" as="geometry" />
        </mxCell>
        <mxCell id="SjPfPHBdl20x7tSrDX4h-19" value="H1&lt;br&gt;(H&lt;br&gt;e&lt;br&gt;i&lt;br&gt;g&lt;br&gt;h&lt;br&gt;t)&lt;br&gt;H1" style="text;html=1;align=center;verticalAlign=middle;whiteSpace=wrap;rounded=0;rotation=0;overflow=visible;" parent="SjPfPHBdl20x7tSrDX4h-18" vertex="1">
          <mxGeometry x="117" y="7" width="17" height="10" as="geometry" />
        </mxCell>
        <mxCell id="SjPfPHBdl20x7tSrDX4h-21" value="" style="html=1;shadow=0;dashed=0;align=center;verticalAlign=middle;shape=mxgraph.arrows2.twoWayArrow;dy=0.65;dx=22;rotation=90;" parent="SjPfPHBdl20x7tSrDX4h-293" vertex="1">
          <mxGeometry x="-97.5" y="117" width="242" height="8" as="geometry" />
        </mxCell>
        <mxCell id="SjPfPHBdl20x7tSrDX4h-492" value="" style="group;editable=0;" parent="1" vertex="1" connectable="0">
          <mxGeometry x="206" y="35" width="696" height="775" as="geometry" />
        </mxCell>
        <mxCell id="SjPfPHBdl20x7tSrDX4h-475" value="" style="group;movable=1;resizable=1;rotatable=1;deletable=1;editable=1;locked=0;connectable=1;" parent="SjPfPHBdl20x7tSrDX4h-492" vertex="1" connectable="0">
          <mxGeometry x="107" y="27" width="589" height="748" as="geometry" />
        </mxCell>
        <mxCell id="SjPfPHBdl20x7tSrDX4h-491" value="" style="group" parent="SjPfPHBdl20x7tSrDX4h-475" vertex="1" connectable="0">
          <mxGeometry width="578" height="562" as="geometry" />
        </mxCell>
        <mxCell id="SjPfPHBdl20x7tSrDX4h-360" value="" style="group" parent="SjPfPHBdl20x7tSrDX4h-491" vertex="1" connectable="0">
          <mxGeometry x="9" y="254" width="248" height="248" as="geometry" />
        </mxCell>
        <mxCell id="SjPfPHBdl20x7tSrDX4h-358" value="" style="shape=ext;double=1;whiteSpace=wrap;html=1;aspect=fixed;resizeWidth=1;resizeHeight=1;fillColor=#3630AD;fillStyle=dots;" parent="SjPfPHBdl20x7tSrDX4h-360" vertex="1">
          <mxGeometry width="248" height="248" as="geometry" />
        </mxCell>
        <mxCell id="SjPfPHBdl20x7tSrDX4h-359" value="Sensing&lt;br&gt;Area" style="text;strokeColor=none;fillColor=none;html=1;fontSize=24;fontStyle=1;verticalAlign=middle;align=center;" parent="SjPfPHBdl20x7tSrDX4h-360" vertex="1">
          <mxGeometry x="74.5" y="104.5" width="100" height="40" as="geometry" />
        </mxCell>
        <mxCell id="SjPfPHBdl20x7tSrDX4h-332" value="" style="ellipse;shape=doubleEllipse;whiteSpace=wrap;html=1;aspect=fixed;fillColor=none;" parent="SjPfPHBdl20x7tSrDX4h-491" vertex="1">
          <mxGeometry x="2" y="493" width="16" height="16" as="geometry" />
        </mxCell>
        <mxCell id="SjPfPHBdl20x7tSrDX4h-353" value="" style="shape=waypoint;sketch=0;fillStyle=solid;size=6;pointerEvents=1;points=[];fillColor=none;resizable=0;rotatable=0;perimeter=centerPerimeter;snapToPoint=1;" parent="SjPfPHBdl20x7tSrDX4h-491" vertex="1">
          <mxGeometry y="491" width="20" height="20" as="geometry" />
        </mxCell>
        <mxCell id="SjPfPHBdl20x7tSrDX4h-298" value="" style="ellipse;shape=doubleEllipse;whiteSpace=wrap;html=1;aspect=fixed;fillColor=none;" parent="SjPfPHBdl20x7tSrDX4h-491" vertex="1">
          <mxGeometry x="3" y="247.5" width="16" height="16" as="geometry" />
        </mxCell>
        <mxCell id="SjPfPHBdl20x7tSrDX4h-354" value="" style="shape=waypoint;sketch=0;fillStyle=solid;size=6;pointerEvents=1;points=[];fillColor=none;resizable=0;rotatable=0;perimeter=centerPerimeter;snapToPoint=1;" parent="SjPfPHBdl20x7tSrDX4h-491" vertex="1">
          <mxGeometry x="1" y="245.5" width="20" height="20" as="geometry" />
        </mxCell>
        <mxCell id="SjPfPHBdl20x7tSrDX4h-352" value="" style="shape=waypoint;sketch=0;fillStyle=solid;size=6;pointerEvents=1;points=[];fillColor=none;resizable=0;rotatable=0;perimeter=centerPerimeter;snapToPoint=1;" parent="SjPfPHBdl20x7tSrDX4h-491" vertex="1">
          <mxGeometry x="414" y="491" width="20" height="20" as="geometry" />
        </mxCell>
        <mxCell id="SjPfPHBdl20x7tSrDX4h-316" value="" style="ellipse;shape=doubleEllipse;whiteSpace=wrap;html=1;aspect=fixed;fillColor=none;" parent="SjPfPHBdl20x7tSrDX4h-491" vertex="1">
          <mxGeometry x="416" y="2" width="16" height="16" as="geometry" />
        </mxCell>
        <mxCell id="SjPfPHBdl20x7tSrDX4h-350" value="" style="shape=waypoint;sketch=0;fillStyle=solid;size=6;pointerEvents=1;points=[];fillColor=none;resizable=0;rotatable=0;perimeter=centerPerimeter;snapToPoint=1;" parent="SjPfPHBdl20x7tSrDX4h-491" vertex="1">
          <mxGeometry x="414" width="20" height="20" as="geometry" />
        </mxCell>
        <mxCell id="SjPfPHBdl20x7tSrDX4h-331" value="" style="ellipse;shape=doubleEllipse;whiteSpace=wrap;html=1;aspect=fixed;fillColor=none;" parent="SjPfPHBdl20x7tSrDX4h-491" vertex="1">
          <mxGeometry x="416" y="493" width="16" height="16" as="geometry" />
        </mxCell>
        <mxCell id="SjPfPHBdl20x7tSrDX4h-317" value="" style="ellipse;shape=doubleEllipse;whiteSpace=wrap;html=1;aspect=fixed;fillColor=none;" parent="SjPfPHBdl20x7tSrDX4h-491" vertex="1">
          <mxGeometry x="416" y="247" width="16" height="16" as="geometry" />
        </mxCell>
        <mxCell id="SjPfPHBdl20x7tSrDX4h-329" value="" style="ellipse;shape=doubleEllipse;whiteSpace=wrap;html=1;aspect=fixed;fillColor=none;" parent="SjPfPHBdl20x7tSrDX4h-491" vertex="1">
          <mxGeometry x="247.5" y="493" width="16" height="16" as="geometry" />
        </mxCell>
        <mxCell id="SjPfPHBdl20x7tSrDX4h-349" value="" style="shape=waypoint;sketch=0;fillStyle=solid;size=6;pointerEvents=1;points=[];fillColor=none;resizable=0;rotatable=0;perimeter=centerPerimeter;snapToPoint=1;" parent="SjPfPHBdl20x7tSrDX4h-491" vertex="1">
          <mxGeometry x="414" y="245" width="20" height="20" as="geometry" />
        </mxCell>
        <mxCell id="SjPfPHBdl20x7tSrDX4h-351" value="" style="shape=waypoint;sketch=0;fillStyle=solid;size=6;pointerEvents=1;points=[];fillColor=none;resizable=0;rotatable=0;perimeter=centerPerimeter;snapToPoint=1;" parent="SjPfPHBdl20x7tSrDX4h-491" vertex="1">
          <mxGeometry x="245.5" y="491" width="20" height="20" as="geometry" />
        </mxCell>
        <mxCell id="SjPfPHBdl20x7tSrDX4h-338" value="" style="ellipse;shape=doubleEllipse;whiteSpace=wrap;html=1;aspect=fixed;fillColor=none;" parent="SjPfPHBdl20x7tSrDX4h-491" vertex="1">
          <mxGeometry x="247.5" y="247.5" width="16" height="16" as="geometry" />
        </mxCell>
        <mxCell id="SjPfPHBdl20x7tSrDX4h-347" value="" style="shape=waypoint;sketch=0;fillStyle=solid;size=6;pointerEvents=1;points=[];fillColor=none;resizable=0;rotatable=0;perimeter=centerPerimeter;snapToPoint=1;" parent="SjPfPHBdl20x7tSrDX4h-491" vertex="1">
          <mxGeometry x="245.5" y="245.5" width="20" height="20" as="geometry" />
        </mxCell>
        <mxCell id="SjPfPHBdl20x7tSrDX4h-296" value="" style="ellipse;shape=doubleEllipse;whiteSpace=wrap;html=1;aspect=fixed;fillColor=none;" parent="SjPfPHBdl20x7tSrDX4h-491" vertex="1">
          <mxGeometry x="247.5" y="2" width="16" height="16" as="geometry" />
        </mxCell>
        <mxCell id="SjPfPHBdl20x7tSrDX4h-348" value="" style="shape=waypoint;sketch=0;fillStyle=solid;size=6;pointerEvents=1;points=[];fillColor=none;resizable=0;rotatable=0;perimeter=centerPerimeter;snapToPoint=1;" parent="SjPfPHBdl20x7tSrDX4h-491" vertex="1">
          <mxGeometry x="245.5" width="20" height="20" as="geometry" />
        </mxCell>
        <mxCell id="SjPfPHBdl20x7tSrDX4h-333" value="" style="endArrow=none;dashed=1;html=1;dashPattern=1 3;strokeWidth=2;rounded=0;entryX=0;entryY=0.5;entryDx=0;entryDy=0;exitX=1;exitY=0.5;exitDx=0;exitDy=0;" parent="SjPfPHBdl20x7tSrDX4h-491" source="SjPfPHBdl20x7tSrDX4h-332" target="SjPfPHBdl20x7tSrDX4h-329" edge="1">
          <mxGeometry width="50" height="50" relative="1" as="geometry">
            <mxPoint x="18" y="504" as="sourcePoint" />
            <mxPoint x="257" y="503" as="targetPoint" />
          </mxGeometry>
        </mxCell>
        <mxCell id="SjPfPHBdl20x7tSrDX4h-336" value="" style="endArrow=none;dashed=1;html=1;dashPattern=1 3;strokeWidth=2;rounded=0;entryX=0.5;entryY=1;entryDx=0;entryDy=0;exitX=0.5;exitY=0;exitDx=0;exitDy=0;" parent="SjPfPHBdl20x7tSrDX4h-491" source="SjPfPHBdl20x7tSrDX4h-332" target="SjPfPHBdl20x7tSrDX4h-298" edge="1">
          <mxGeometry width="50" height="50" relative="1" as="geometry">
            <mxPoint x="-110" y="388" as="sourcePoint" />
            <mxPoint x="124" y="389" as="targetPoint" />
          </mxGeometry>
        </mxCell>
        <mxCell id="SjPfPHBdl20x7tSrDX4h-337" value="" style="endArrow=none;dashed=1;html=1;dashPattern=1 3;strokeWidth=2;rounded=0;entryX=0;entryY=0.5;entryDx=0;entryDy=0;exitX=1;exitY=0.5;exitDx=0;exitDy=0;" parent="SjPfPHBdl20x7tSrDX4h-491" source="SjPfPHBdl20x7tSrDX4h-298" target="SjPfPHBdl20x7tSrDX4h-338" edge="1">
          <mxGeometry width="50" height="50" relative="1" as="geometry">
            <mxPoint x="17" y="254" as="sourcePoint" />
            <mxPoint x="251" y="255" as="targetPoint" />
          </mxGeometry>
        </mxCell>
        <mxCell id="SjPfPHBdl20x7tSrDX4h-339" value="" style="endArrow=none;dashed=1;html=1;dashPattern=1 3;strokeWidth=2;rounded=0;entryX=0.5;entryY=1;entryDx=0;entryDy=0;exitX=0.5;exitY=0;exitDx=0;exitDy=0;" parent="SjPfPHBdl20x7tSrDX4h-491" source="SjPfPHBdl20x7tSrDX4h-338" target="SjPfPHBdl20x7tSrDX4h-296" edge="1">
          <mxGeometry width="50" height="50" relative="1" as="geometry">
            <mxPoint x="272" y="228" as="sourcePoint" />
            <mxPoint x="242" y="38" as="targetPoint" />
          </mxGeometry>
        </mxCell>
        <mxCell id="SjPfPHBdl20x7tSrDX4h-340" value="" style="endArrow=none;dashed=1;html=1;dashPattern=1 3;strokeWidth=2;rounded=0;exitX=1;exitY=0.5;exitDx=0;exitDy=0;entryX=0;entryY=0.5;entryDx=0;entryDy=0;" parent="SjPfPHBdl20x7tSrDX4h-491" source="SjPfPHBdl20x7tSrDX4h-296" target="SjPfPHBdl20x7tSrDX4h-316" edge="1">
          <mxGeometry width="50" height="50" relative="1" as="geometry">
            <mxPoint x="277" y="8.759999999999991" as="sourcePoint" />
            <mxPoint x="482" y="18" as="targetPoint" />
          </mxGeometry>
        </mxCell>
        <mxCell id="SjPfPHBdl20x7tSrDX4h-341" value="" style="endArrow=none;dashed=1;html=1;dashPattern=1 3;strokeWidth=2;rounded=0;exitX=0.5;exitY=0;exitDx=0;exitDy=0;entryX=0.5;entryY=1;entryDx=0;entryDy=0;" parent="SjPfPHBdl20x7tSrDX4h-491" source="SjPfPHBdl20x7tSrDX4h-317" target="SjPfPHBdl20x7tSrDX4h-316" edge="1">
          <mxGeometry width="50" height="50" relative="1" as="geometry">
            <mxPoint x="429.5" y="248" as="sourcePoint" />
            <mxPoint x="414" y="28" as="targetPoint" />
          </mxGeometry>
        </mxCell>
        <mxCell id="SjPfPHBdl20x7tSrDX4h-344" value="" style="endArrow=none;dashed=1;html=1;dashPattern=1 3;strokeWidth=2;rounded=0;entryX=0;entryY=0.5;entryDx=0;entryDy=0;exitX=1;exitY=0.5;exitDx=0;exitDy=0;" parent="SjPfPHBdl20x7tSrDX4h-491" source="SjPfPHBdl20x7tSrDX4h-329" target="SjPfPHBdl20x7tSrDX4h-331" edge="1">
          <mxGeometry width="50" height="50" relative="1" as="geometry">
            <mxPoint x="265" y="478" as="sourcePoint" />
            <mxPoint x="499" y="479" as="targetPoint" />
          </mxGeometry>
        </mxCell>
        <mxCell id="SjPfPHBdl20x7tSrDX4h-345" value="" style="endArrow=none;dashed=1;html=1;dashPattern=1 3;strokeWidth=2;rounded=0;exitX=0.5;exitY=0;exitDx=0;exitDy=0;entryX=0.5;entryY=1;entryDx=0;entryDy=0;" parent="SjPfPHBdl20x7tSrDX4h-491" source="SjPfPHBdl20x7tSrDX4h-331" target="SjPfPHBdl20x7tSrDX4h-317" edge="1">
          <mxGeometry width="50" height="50" relative="1" as="geometry">
            <mxPoint x="418" y="494" as="sourcePoint" />
            <mxPoint x="419" y="265" as="targetPoint" />
          </mxGeometry>
        </mxCell>
        <mxCell id="SjPfPHBdl20x7tSrDX4h-361" value="" style="group;imageAspect=0;overflow=visible;" parent="SjPfPHBdl20x7tSrDX4h-491" vertex="1" connectable="0">
          <mxGeometry x="254" y="9" width="170" height="248" as="geometry" />
        </mxCell>
        <mxCell id="SjPfPHBdl20x7tSrDX4h-362" value="" style="shape=ext;double=1;whiteSpace=wrap;html=1;aspect=fixed;resizeWidth=1;resizeHeight=1;fillColor=#3630AD;fillStyle=dots;recursiveResize=0;expand=0;" parent="SjPfPHBdl20x7tSrDX4h-361" vertex="1">
          <mxGeometry width="170" height="245.29" as="geometry" />
        </mxCell>
        <mxCell id="SjPfPHBdl20x7tSrDX4h-363" value="Sensing&lt;br&gt;Area" style="text;strokeColor=none;fillColor=none;html=1;fontSize=24;fontStyle=1;verticalAlign=middle;align=center;" parent="SjPfPHBdl20x7tSrDX4h-361" vertex="1">
          <mxGeometry x="51.631804435483865" y="104.5" width="69.30443548387098" height="40" as="geometry" />
        </mxCell>
        <mxCell id="SjPfPHBdl20x7tSrDX4h-364" value="" style="endArrow=none;dashed=1;html=1;dashPattern=12 12;strokeWidth=6;rounded=0;endSize=6;jumpSize=6;curved=1;exitX=0.963;exitY=0.53;exitDx=0;exitDy=0;exitPerimeter=0;strokeColor=#3630ad;fixDash=1;sourcePerimeterSpacing=0;anchorPointDirection=1;orthogonal=0;comic=1;" parent="SjPfPHBdl20x7tSrDX4h-491" edge="1">
          <mxGeometry width="50" height="50" relative="1" as="geometry">
            <mxPoint x="255.5" y="501" as="sourcePoint" />
            <mxPoint x="423" y="502" as="targetPoint" />
          </mxGeometry>
        </mxCell>
        <mxCell id="SjPfPHBdl20x7tSrDX4h-365" value="" style="endArrow=none;dashed=1;html=1;dashPattern=12 12;strokeWidth=6;rounded=0;endSize=6;jumpSize=6;curved=1;entryX=1;entryY=0;entryDx=0;entryDy=0;exitX=1;exitY=1;exitDx=0;exitDy=0;strokeColor=#3630ad;fixDash=1;sourcePerimeterSpacing=0;anchorPointDirection=1;orthogonal=0;comic=1;" parent="SjPfPHBdl20x7tSrDX4h-491" edge="1">
          <mxGeometry width="50" height="50" relative="1" as="geometry">
            <mxPoint x="424" y="501" as="sourcePoint" />
            <mxPoint x="424" y="257.00000000000045" as="targetPoint" />
          </mxGeometry>
        </mxCell>
        <mxCell id="SjPfPHBdl20x7tSrDX4h-277" value="" style="group;imageAspect=0;recursiveResize=0;resizeWidth=1;" parent="SjPfPHBdl20x7tSrDX4h-491" vertex="1" connectable="0">
          <mxGeometry x="241" y="238" width="180" height="260" as="geometry" />
        </mxCell>
        <mxCell id="SjPfPHBdl20x7tSrDX4h-357" value="" style="group;recursiveResize=1;imageAspect=0;" parent="SjPfPHBdl20x7tSrDX4h-277" vertex="1" connectable="0">
          <mxGeometry x="15" y="18" width="170" height="254" as="geometry" />
        </mxCell>
        <mxCell id="SjPfPHBdl20x7tSrDX4h-355" value="" style="shape=ext;double=1;whiteSpace=wrap;html=1;aspect=fixed;resizeWidth=1;resizeHeight=1;fillColor=#33001B;fontColor=#ffffff;strokeColor=#A50040;" parent="SjPfPHBdl20x7tSrDX4h-357" vertex="1">
          <mxGeometry width="165.92000000000002" height="244" as="geometry" />
        </mxCell>
        <mxCell id="SjPfPHBdl20x7tSrDX4h-356" value="Collidable &lt;br&gt;Rect" style="text;strokeColor=none;fillColor=none;html=1;fontSize=24;fontStyle=1;verticalAlign=middle;align=center;" parent="SjPfPHBdl20x7tSrDX4h-357" vertex="1">
          <mxGeometry x="13" y="80.85" width="139.92" height="82.31" as="geometry" />
        </mxCell>
        <mxCell id="SjPfPHBdl20x7tSrDX4h-472" value="X2" style="text;html=1;align=center;verticalAlign=middle;whiteSpace=wrap;rounded=0;fontStyle=1;fontColor=#36FFD0;" parent="SjPfPHBdl20x7tSrDX4h-357" vertex="1">
          <mxGeometry x="2" width="14" height="14" as="geometry" />
        </mxCell>
        <mxCell id="SjPfPHBdl20x7tSrDX4h-285" value="Y2" style="text;html=1;align=center;verticalAlign=middle;whiteSpace=wrap;rounded=0;fontStyle=1;fontColor=#FF352E;" parent="SjPfPHBdl20x7tSrDX4h-277" vertex="1">
          <mxGeometry y="8" width="15" height="10" as="geometry" />
        </mxCell>
        <mxCell id="SjPfPHBdl20x7tSrDX4h-286" value="X2" style="text;html=1;align=center;verticalAlign=middle;whiteSpace=wrap;rounded=0;fontStyle=1;fontColor=#36FFD0;" parent="SjPfPHBdl20x7tSrDX4h-277" vertex="1">
          <mxGeometry x="1" y="260" width="14" height="14" as="geometry" />
        </mxCell>
        <mxCell id="SjPfPHBdl20x7tSrDX4h-287" value="" style="group" parent="SjPfPHBdl20x7tSrDX4h-277" vertex="1" connectable="0">
          <mxGeometry x="16" y="4.5" width="179" height="17" as="geometry" />
        </mxCell>
        <mxCell id="SjPfPHBdl20x7tSrDX4h-288" value="W2 (Width)" style="text;html=1;align=center;verticalAlign=middle;whiteSpace=wrap;rounded=0;fontColor=#36FFD0;" parent="SjPfPHBdl20x7tSrDX4h-287" vertex="1">
          <mxGeometry x="48.49586776859504" y="1" width="66.00826446280992" height="10" as="geometry" />
        </mxCell>
        <mxCell id="SjPfPHBdl20x7tSrDX4h-289" value="" style="html=1;shadow=0;dashed=0;align=center;verticalAlign=middle;shape=mxgraph.arrows2.twoWayArrow;dy=0.65;dx=22;" parent="SjPfPHBdl20x7tSrDX4h-287" vertex="1">
          <mxGeometry y="9" width="163" height="8" as="geometry" />
        </mxCell>
        <mxCell id="SjPfPHBdl20x7tSrDX4h-278" value="Y2" style="text;html=1;align=center;verticalAlign=middle;whiteSpace=wrap;rounded=0;fontStyle=1;fontColor=#FF352E;" parent="SjPfPHBdl20x7tSrDX4h-287" vertex="1">
          <mxGeometry x="163" y="2.5" width="15" height="10" as="geometry" />
        </mxCell>
        <mxCell id="SjPfPHBdl20x7tSrDX4h-318" value="" style="group" parent="SjPfPHBdl20x7tSrDX4h-277" vertex="1" connectable="0">
          <mxGeometry x="-7.5" y="21" width="141.75" height="242.5" as="geometry" />
        </mxCell>
        <mxCell id="SjPfPHBdl20x7tSrDX4h-279" value="" style="group;rotation=90;" parent="SjPfPHBdl20x7tSrDX4h-318" vertex="1" connectable="0">
          <mxGeometry x="-112.5" y="113" width="242" height="17" as="geometry" />
        </mxCell>
        <mxCell id="SjPfPHBdl20x7tSrDX4h-280" value="H2&lt;br&gt;(H&lt;br&gt;e&lt;br&gt;i&lt;br&gt;g&lt;br&gt;h&lt;br&gt;t)" style="text;html=1;align=center;verticalAlign=middle;whiteSpace=wrap;rounded=0;rotation=0;fontColor=#FF352E;" parent="SjPfPHBdl20x7tSrDX4h-279" vertex="1">
          <mxGeometry x="117" y="7" width="17" height="10" as="geometry" />
        </mxCell>
        <mxCell id="SjPfPHBdl20x7tSrDX4h-282" value="" style="html=1;shadow=0;dashed=0;align=center;verticalAlign=middle;shape=mxgraph.arrows2.twoWayArrow;dy=0.65;dx=22;rotation=90;" parent="SjPfPHBdl20x7tSrDX4h-318" vertex="1">
          <mxGeometry x="-96.75" y="115.25" width="238.5" height="8" as="geometry" />
        </mxCell>
        <mxCell id="SjPfPHBdl20x7tSrDX4h-319" value="" style="shape=flexArrow;endArrow=classic;startArrow=classic;html=1;rounded=0;exitX=1;exitY=0.75;exitDx=0;exitDy=0;startWidth=4.742268041237113;startSize=6.2577319587628875;endWidth=2.7160493827160495;endSize=6.0814814814814815;" parent="SjPfPHBdl20x7tSrDX4h-277" edge="1">
          <mxGeometry width="100" height="100" relative="1" as="geometry">
            <mxPoint x="41" y="28.5" as="sourcePoint" />
            <mxPoint x="174" y="259" as="targetPoint" />
            <Array as="points">
              <mxPoint x="174" y="28" />
            </Array>
          </mxGeometry>
        </mxCell>
        <mxCell id="SjPfPHBdl20x7tSrDX4h-474" value="" style="endArrow=none;dashed=1;html=1;dashPattern=12 12;strokeWidth=6;rounded=0;endSize=6;jumpSize=6;curved=1;strokeColor=#3630ad;fixDash=1;sourcePerimeterSpacing=0;anchorPointDirection=1;orthogonal=0;comic=1;entryX=0.503;entryY=0.946;entryDx=0;entryDy=0;entryPerimeter=0;exitX=0.493;exitY=0.103;exitDx=0;exitDy=0;exitPerimeter=0;" parent="SjPfPHBdl20x7tSrDX4h-491" source="SjPfPHBdl20x7tSrDX4h-349" target="SjPfPHBdl20x7tSrDX4h-350" edge="1">
          <mxGeometry width="50" height="50" relative="1" as="geometry">
            <mxPoint x="441" y="221" as="sourcePoint" />
            <mxPoint x="423.63" y="-2" as="targetPoint" />
          </mxGeometry>
        </mxCell>
        <mxCell id="SjPfPHBdl20x7tSrDX4h-481" value="x2 + w2" style="text;strokeColor=none;fillColor=none;html=1;fontSize=24;fontStyle=1;verticalAlign=middle;align=center;" parent="SjPfPHBdl20x7tSrDX4h-491" vertex="1">
          <mxGeometry x="478" y="211" width="100" height="40" as="geometry" />
        </mxCell>
        <mxCell id="SjPfPHBdl20x7tSrDX4h-482" value="" style="endArrow=classic;html=1;rounded=0;exitX=0.25;exitY=1;exitDx=0;exitDy=0;curved=1;" parent="SjPfPHBdl20x7tSrDX4h-491" source="SjPfPHBdl20x7tSrDX4h-481" edge="1">
          <mxGeometry width="50" height="50" relative="1" as="geometry">
            <mxPoint x="547" y="256" as="sourcePoint" />
            <mxPoint x="442" y="256" as="targetPoint" />
            <Array as="points">
              <mxPoint x="481" y="271" />
            </Array>
          </mxGeometry>
        </mxCell>
        <mxCell id="SjPfPHBdl20x7tSrDX4h-484" value="" style="endArrow=classic;html=1;rounded=0;exitX=0.25;exitY=1;exitDx=0;exitDy=0;curved=1;" parent="SjPfPHBdl20x7tSrDX4h-491" source="SjPfPHBdl20x7tSrDX4h-483" edge="1">
          <mxGeometry width="50" height="50" relative="1" as="geometry">
            <mxPoint x="160" y="80" as="sourcePoint" />
            <mxPoint x="245" y="13" as="targetPoint" />
            <Array as="points">
              <mxPoint x="196" y="35" />
            </Array>
          </mxGeometry>
        </mxCell>
        <mxCell id="SjPfPHBdl20x7tSrDX4h-485" value="" style="endArrow=classic;html=1;rounded=0;exitX=0.143;exitY=0.997;exitDx=0;exitDy=0;curved=1;exitPerimeter=0;" parent="SjPfPHBdl20x7tSrDX4h-491" source="SjPfPHBdl20x7tSrDX4h-486" edge="1">
          <mxGeometry width="50" height="50" relative="1" as="geometry">
            <mxPoint x="277" y="618" as="sourcePoint" />
            <mxPoint x="257" y="513" as="targetPoint" />
            <Array as="points">
              <mxPoint x="256" y="562" />
              <mxPoint x="242" y="548" />
            </Array>
          </mxGeometry>
        </mxCell>
        <mxCell id="SjPfPHBdl20x7tSrDX4h-486" value="y2 + h2" style="text;strokeColor=none;fillColor=none;html=1;fontSize=24;fontStyle=1;verticalAlign=middle;align=center;" parent="SjPfPHBdl20x7tSrDX4h-491" vertex="1">
          <mxGeometry x="257" y="511" width="100" height="40" as="geometry" />
        </mxCell>
        <mxCell id="SjPfPHBdl20x7tSrDX4h-476" value="x2 - w1" style="text;strokeColor=none;fillColor=none;html=1;fontSize=24;fontStyle=1;verticalAlign=middle;align=center;" parent="SjPfPHBdl20x7tSrDX4h-492" vertex="1">
          <mxGeometry y="237" width="100" height="40" as="geometry" />
        </mxCell>
        <mxCell id="SjPfPHBdl20x7tSrDX4h-479" value="" style="endArrow=block;html=1;rounded=0;curved=1;exitX=0.25;exitY=1;exitDx=0;exitDy=0;targetPerimeterSpacing=0;strokeWidth=1;perimeterSpacing=0;endFill=1;" parent="SjPfPHBdl20x7tSrDX4h-492" source="SjPfPHBdl20x7tSrDX4h-476" edge="1">
          <mxGeometry width="50" height="50" relative="1" as="geometry">
            <mxPoint x="33" y="282" as="sourcePoint" />
            <mxPoint x="106" y="284" as="targetPoint" />
            <Array as="points">
              <mxPoint x="56" y="293" />
            </Array>
          </mxGeometry>
        </mxCell>
        <mxCell id="SjPfPHBdl20x7tSrDX4h-483" value="y2 - h1" style="text;strokeColor=none;fillColor=none;html=1;fontSize=24;fontStyle=1;verticalAlign=middle;align=center;" parent="SjPfPHBdl20x7tSrDX4h-492" vertex="1">
          <mxGeometry x="247" width="100" height="40" as="geometry" />
        </mxCell>
      </root>
    </mxGraphModel>
  </diagram>
</mxfile>
